<svg width="18" height="18" viewBox="0 0 18 18" fill="none" xmlns="http://www.w3.org/2000/svg">
<path d="M6.50246 1.25722C6.19873 0.497902 5.46332 0 4.64551 0H1.89474C0.848303 0 0 0.848097 0 1.89453C0 10.7892 7.21078 18 16.1055 18C17.1519 18 18 17.1516 18 16.1052L18.0005 13.354C18.0005 12.5361 17.5027 11.8009 16.7434 11.4971L14.1069 10.4429C13.4249 10.1701 12.6483 10.2929 12.0839 10.7632L11.4035 11.3307C10.6089 11.9929 9.43963 11.9402 8.7082 11.2088L6.79222 9.29106C6.06079 8.55962 6.00673 7.39134 6.66895 6.59668L7.23633 5.9163C7.70661 5.35195 7.83049 4.57516 7.55766 3.89309L6.50246 1.25722Z" fill="black"/>
</svg>
